<?xml version="1.0" encoding="UTF-8"?>
<svg width="99px" height="40px" viewBox="0 0 909 1200" version="1.1" xmlns="http://www.w3.org/2000/svg" xmlns:xlink="http://www.w3.org/1999/xlink">
    <!-- Generator: Sketch 49.3 (51167) - http://www.bohemiancoding.com/sketch -->
    <title>Lenshood</title>
    <desc>Created with Sketch.</desc>
    <defs>
        <linearGradient x1="25.0735959%" y1="11.2123146%" x2="77.2612861%" y2="86.2134878%" id="linearGradient-1">
            <stop stop-color="#66C6EA" offset="0%"></stop>
            <stop stop-color="#4E2CCA" offset="100%"></stop>
        </linearGradient>
        <linearGradient x1="95.9741199%" y1="59.5479906%" x2="0%" y2="50%" id="linearGradient-2">
            <stop stop-color="#4E2CCA" offset="0%"></stop>
            <stop stop-color="#5453D2" offset="35.5355853%"></stop>
            <stop stop-color="#1D3FA9" offset="100%"></stop>
        </linearGradient>
    </defs>
    <g id="Page-1" stroke="none" stroke-width="1" fill="none" fill-rule="evenodd">
        <g id="Group" transform="translate(95.000000, 102.000000)">
            <path d="M316.740922,785.750604 L38.2590778,625.001869 C14.5842781,611.336009 0,586.080456 0,558.748735 L0,237.251265 C0,209.919544 14.5842781,184.663991 38.2590778,170.998131 L316.740922,10.2493956 C340.415722,-3.41646519 369.584278,-3.41646519 393.259078,10.2493956 L671.740922,170.998131 C695.415722,184.663991 710,209.919544 710,237.251265 L710,558.748735 C710,586.080456 695.415722,611.336009 671.740922,625.001869 L393.259078,785.750604 C369.584278,799.416465 340.415722,799.416465 316.740922,785.750604 Z" id="Polygon" fill="url(#linearGradient-1)"></path>
            <ellipse id="Oval" stroke="#FFFFFF" stroke-width="11" cx="362" cy="403.5" rx="219" ry="218.5"></ellipse>
            <circle id="Oval-Copy" fill="#FFFFFF" cx="361.5" cy="403.5" r="65.5"></circle>
            <circle id="Oval-Copy" fill="#FFFFFF" cx="475" cy="322" r="16"></circle>
            <!-- <text id="LensHood" fill="url(#linearGradient-2)" font-family="AvenirNext-Heavy, Avenir Next" font-size="140" font-weight="600" letter-spacing="1.6882354">
                <tspan x="12" y="956">LensHood</tspan>
            </text> -->
        </g>
    </g>
</svg>